<?xml version="1.0" encoding="utf-8"?>
<!-- Generator: Adobe Illustrator 21.0.0, SVG Export Plug-In . SVG Version: 6.00 Build 0)  -->
<svg version="1.1" id="Layer_1" xmlns="http://www.w3.org/2000/svg" xmlns:xlink="http://www.w3.org/1999/xlink" x="0px" y="0px"
	 viewBox="0 0 136 30" style="enable-background:new 0 0 136 30;" xml:space="preserve">
<style type="text/css">
	.st0{fill:#4285F4;}
	.st1{fill:none;}
	.st2{enable-background:new    ;}
	.st3{fill:#FFFFFF;}
</style>
<g>
	<rect class="st0" width="136" height="30"/>
</g>
<rect y="8.5" class="st1" width="136" height="19.8"/>
<g class="st2">
	<path class="st3" d="M30.3,19.3h5.4v1.2h-6.9V9.1h1.5V19.3z"/>
	<path class="st3" d="M40.7,20.7c-0.6,0-1.1-0.1-1.6-0.3s-0.9-0.5-1.2-0.8c-0.3-0.4-0.6-0.8-0.8-1.3c-0.2-0.5-0.3-1-0.3-1.6v-0.3
		c0-0.7,0.1-1.3,0.3-1.8c0.2-0.5,0.5-1,0.8-1.4s0.7-0.7,1.2-0.8c0.4-0.2,0.9-0.3,1.4-0.3c0.6,0,1.1,0.1,1.6,0.3s0.8,0.5,1.1,0.9
		c0.3,0.4,0.5,0.8,0.6,1.3C44,14.9,44,15.4,44,16v0.6h-5.7c0,0.4,0.1,0.8,0.2,1.1s0.3,0.6,0.5,0.9c0.2,0.2,0.5,0.4,0.8,0.6
		s0.6,0.2,1,0.2c0.5,0,0.9-0.1,1.3-0.3c0.4-0.2,0.7-0.5,0.9-0.8l0.9,0.7c-0.1,0.2-0.3,0.4-0.5,0.6c-0.2,0.2-0.4,0.4-0.7,0.5
		s-0.6,0.3-0.9,0.4C41.5,20.6,41.1,20.7,40.7,20.7z M40.5,13.1c-0.3,0-0.6,0.1-0.8,0.2c-0.2,0.1-0.5,0.3-0.7,0.5
		c-0.2,0.2-0.4,0.5-0.5,0.8c-0.1,0.3-0.2,0.6-0.3,1h4.2v-0.1c0-0.3-0.1-0.6-0.1-0.8c-0.1-0.3-0.2-0.5-0.4-0.7
		c-0.2-0.2-0.4-0.4-0.6-0.5S40.9,13.1,40.5,13.1z"/>
	<path class="st3" d="M50.9,20.5c-0.1-0.1-0.1-0.2-0.1-0.4s-0.1-0.3-0.1-0.5c-0.1,0.1-0.3,0.3-0.5,0.4c-0.2,0.1-0.4,0.2-0.6,0.3
		c-0.2,0.1-0.4,0.2-0.7,0.2s-0.5,0.1-0.7,0.1c-0.4,0-0.8-0.1-1.2-0.2s-0.7-0.3-0.9-0.5c-0.2-0.2-0.4-0.5-0.6-0.8
		c-0.1-0.3-0.2-0.6-0.2-1c0-0.5,0.1-0.9,0.3-1.2c0.2-0.3,0.4-0.6,0.8-0.9c0.3-0.2,0.7-0.4,1.2-0.5s1-0.2,1.6-0.2h1.4v-0.7
		c0-0.5-0.2-0.9-0.5-1.2c-0.3-0.3-0.7-0.4-1.3-0.4c-0.3,0-0.5,0-0.7,0.1c-0.2,0.1-0.4,0.2-0.6,0.3c-0.2,0.1-0.3,0.3-0.4,0.4
		c-0.1,0.2-0.1,0.3-0.1,0.5h-1.5c0-0.3,0.1-0.6,0.2-0.9c0.2-0.3,0.4-0.6,0.7-0.8c0.3-0.2,0.6-0.4,1.1-0.6s0.9-0.2,1.4-0.2
		c0.5,0,0.9,0.1,1.3,0.2c0.4,0.1,0.7,0.3,1,0.5c0.3,0.2,0.5,0.5,0.6,0.9s0.2,0.8,0.2,1.2v3.9c0,0.3,0,0.6,0.1,0.9
		c0,0.3,0.1,0.6,0.2,0.8v0.1H50.9z M48.5,19.4c0.3,0,0.5,0,0.7-0.1c0.2-0.1,0.4-0.2,0.6-0.3s0.4-0.3,0.5-0.4
		c0.1-0.2,0.2-0.3,0.3-0.5v-1.7h-1.2c-0.8,0-1.5,0.1-1.9,0.4c-0.4,0.3-0.7,0.6-0.7,1.2c0,0.2,0,0.4,0.1,0.6c0.1,0.2,0.2,0.3,0.3,0.5
		c0.1,0.1,0.3,0.2,0.5,0.3C48,19.4,48.2,19.4,48.5,19.4z"/>
	<path class="st3" d="M58.5,13.3c-0.1,0-0.2,0-0.3,0c-0.1,0-0.2,0-0.4,0c-0.5,0-0.9,0.1-1.2,0.3c-0.3,0.2-0.6,0.5-0.7,0.9v6h-1.4V12
		h1.4l0,1c0.2-0.3,0.5-0.6,0.8-0.8s0.7-0.3,1.2-0.3c0.1,0,0.2,0,0.4,0c0.1,0,0.2,0,0.3,0.1V13.3z"/>
	<path class="st3" d="M61.2,12l0,1.1c0.3-0.4,0.7-0.7,1.1-0.9c0.4-0.2,0.9-0.3,1.4-0.3c0.4,0,0.8,0.1,1.1,0.2
		c0.3,0.1,0.6,0.3,0.9,0.5s0.4,0.6,0.5,1c0.1,0.4,0.2,0.9,0.2,1.4v5.5H65v-5.6c0-0.3,0-0.6-0.1-0.8c-0.1-0.2-0.2-0.4-0.3-0.6
		c-0.1-0.1-0.3-0.3-0.5-0.3s-0.5-0.1-0.7-0.1c-0.5,0-0.9,0.1-1.2,0.4c-0.4,0.2-0.6,0.6-0.8,1v6h-1.4V12H61.2z"/>
	<path class="st3" d="M74.8,9.1l3.7,9.3l3.7-9.3h1.9v11.4h-1.5v-4.4l0.1-4.8l-3.7,9.2h-1.1l-3.7-9.2l0.1,4.8v4.4h-1.5V9.1H74.8z"/>
	<path class="st3" d="M86.2,16.2c0-0.6,0.1-1.2,0.3-1.7s0.4-1,0.8-1.4c0.3-0.4,0.7-0.7,1.2-0.9c0.5-0.2,1-0.3,1.6-0.3
		c0.6,0,1.1,0.1,1.6,0.3s0.9,0.5,1.2,0.9c0.3,0.4,0.6,0.8,0.8,1.4c0.2,0.5,0.3,1.1,0.3,1.7v0.2c0,0.6-0.1,1.2-0.3,1.7
		c-0.2,0.5-0.4,1-0.8,1.4c-0.3,0.4-0.7,0.7-1.2,0.9c-0.5,0.2-1,0.3-1.6,0.3s-1.1-0.1-1.6-0.3c-0.5-0.2-0.9-0.5-1.2-0.9
		c-0.3-0.4-0.6-0.8-0.8-1.4s-0.3-1.1-0.3-1.7V16.2z M87.6,16.4c0,0.4,0,0.8,0.1,1.2c0.1,0.4,0.2,0.7,0.4,1c0.2,0.3,0.5,0.5,0.8,0.7
		c0.3,0.2,0.6,0.2,1.1,0.2c0.4,0,0.7-0.1,1-0.2c0.3-0.2,0.6-0.4,0.8-0.7c0.2-0.3,0.3-0.6,0.4-1s0.2-0.8,0.2-1.2v-0.2
		c0-0.4-0.1-0.8-0.2-1.2s-0.3-0.7-0.5-1c-0.2-0.3-0.5-0.5-0.8-0.7c-0.3-0.2-0.7-0.3-1.1-0.3c-0.4,0-0.7,0.1-1,0.3s-0.5,0.4-0.7,0.7
		c-0.2,0.3-0.4,0.6-0.4,1c-0.1,0.4-0.1,0.8-0.1,1.2V16.4z"/>
	<path class="st3" d="M99.8,13.3c-0.1,0-0.2,0-0.3,0c-0.1,0-0.2,0-0.4,0c-0.5,0-0.9,0.1-1.2,0.3c-0.3,0.2-0.6,0.5-0.7,0.9v6h-1.4V12
		h1.4l0,1c0.2-0.3,0.5-0.6,0.8-0.8s0.7-0.3,1.2-0.3c0.1,0,0.2,0,0.4,0c0.1,0,0.2,0,0.3,0.1V13.3z"/>
	<path class="st3" d="M104.5,20.7c-0.6,0-1.1-0.1-1.6-0.3s-0.9-0.5-1.2-0.8c-0.3-0.4-0.6-0.8-0.8-1.3c-0.2-0.5-0.3-1-0.3-1.6v-0.3
		c0-0.7,0.1-1.3,0.3-1.8c0.2-0.5,0.5-1,0.8-1.4s0.7-0.7,1.2-0.8c0.4-0.2,0.9-0.3,1.4-0.3c0.6,0,1.1,0.1,1.6,0.3s0.8,0.5,1.1,0.9
		c0.3,0.4,0.5,0.8,0.6,1.3c0.1,0.5,0.2,1.1,0.2,1.6v0.6H102c0,0.4,0.1,0.8,0.2,1.1s0.3,0.6,0.5,0.9c0.2,0.2,0.5,0.4,0.8,0.6
		s0.6,0.2,1,0.2c0.5,0,0.9-0.1,1.3-0.3c0.4-0.2,0.7-0.5,0.9-0.8l0.9,0.7c-0.1,0.2-0.3,0.4-0.5,0.6c-0.2,0.2-0.4,0.4-0.7,0.5
		s-0.6,0.3-0.9,0.4C105.3,20.6,104.9,20.7,104.5,20.7z M104.3,13.1c-0.3,0-0.6,0.1-0.8,0.2c-0.2,0.1-0.5,0.3-0.7,0.5
		c-0.2,0.2-0.4,0.5-0.5,0.8c-0.1,0.3-0.2,0.6-0.3,1h4.2v-0.1c0-0.3-0.1-0.6-0.1-0.8c-0.1-0.3-0.2-0.5-0.4-0.7
		c-0.2-0.2-0.4-0.4-0.6-0.5S104.7,13.1,104.3,13.1z"/>
</g>
</svg>
